<svg xmlns="http://www.w3.org/2000/svg" viewBox="0 0 496.93 124.97"><title>Asset 6</title><g id="Layer_2" data-name="Layer 2"><g id="Layer_2-2" data-name="Layer 2"><path d="M175.13,26.93h-14a3.92,3.92,0,0,0-3.67,2.55L143.73,64.75,129.64,29.48A3.92,3.92,0,0,0,126,26.93h-14a3.92,3.92,0,0,0-3.67,5.28l24.39,61.07L122.4,119.69a3.92,3.92,0,0,0,3.68,5.28h14a3.92,3.92,0,0,0,3.67-2.56l35-90.2A3.92,3.92,0,0,0,175.13,26.93Z"/><path d="M205.48,72.43a4,4,0,0,1,3.78,2.68c1.84,5.54,8,9,16.3,9,8.68,0,14.63-4.46,14.63-10.89,0-5.41-4-8.32-14.44-10.55l-12-2.57C197,56.67,188.39,46.93,188.39,31.58,188.39,12.51,202.7,0,224.74,0c19.49,0,33.52,10.26,36.17,25.73a4,4,0,0,1-4,4.7H243.14a4,4,0,0,1-3.8-2.77c-1.73-5.38-7.26-8.93-14.28-8.93-8.17,0-13.56,4.13-13.56,10.62,0,5.34,4.06,8.45,13.68,10.48L237,42.27C255,46,263.12,54.71,263.12,70.2c0,20.35-14.57,32.66-38.51,32.66-21.19,0-35.2-9.78-37.67-25.89a4,4,0,0,1,4-4.54Z"/><path d="M462.65,26.93H436.08a5.59,5.59,0,0,0-5.59,5.59v87.71a3.91,3.91,0,0,0,3.92,3.92H449a3.91,3.91,0,0,0,3.91-3.92V95.5h12.94a31.2,31.2,0,0,0,31.11-31.11V61.21A34.38,34.38,0,0,0,462.65,26.93Zm11.89,34.28A12.86,12.86,0,0,1,461.71,74h-8.83V48.38h8.83a12.87,12.87,0,0,1,12.83,12.83Z"/><path d="M383.57,26.93h0A37.66,37.66,0,0,0,346,64.48h0A37.66,37.66,0,0,0,383.57,102h0a37.66,37.66,0,0,0,37.55-37.55h0A37.66,37.66,0,0,0,383.57,26.93Zm15.84,37.55a15.89,15.89,0,0,1-15.84,15.84h0a15.89,15.89,0,0,1-15.84-15.84h0a15.88,15.88,0,0,1,15.84-15.84h0a15.88,15.88,0,0,1,15.84,15.84Z"/><path d="M336.14,63q0-10.43-1.7-16.38a26.17,26.17,0,0,0-6.35-11.06q-8.55-9.22-23-9.41h-.61a38.25,38.25,0,0,0-8.67,1.06V7.14a3.92,3.92,0,0,0-3.92-3.92H277.32a3.92,3.92,0,0,0-3.92,3.92V96.53a3.94,3.94,0,0,0,.27,1.42c.06.15.13.3.2.44a3.82,3.82,0,0,0,.31.47,5.37,5.37,0,0,0,.37.44,3.73,3.73,0,0,0,.43.36,3.85,3.85,0,0,0,1.08.57l.28.08a3.93,3.93,0,0,0,1,.13h14.56a3.92,3.92,0,0,0,3.92-3.91V58.06c0-3.73,1.13-6.46,3.41-8.19a9.06,9.06,0,0,1,11.13,0c2.28,1.73,3.41,4.46,3.41,8.19V96.53a3.92,3.92,0,0,0,3.92,3.91h14.56a3.92,3.92,0,0,0,3.92-3.91V63Z"/><path d="M73.45,4.2,49.17,44.84,24.89,4.2a4,4,0,0,0-3.4-1.93H4a4,4,0,0,0-4,4V96.65a4,4,0,0,0,4,4H18.65a4,4,0,0,0,4-4V40.11l21.48,36A4,4,0,0,0,47.49,78h3.36a4,4,0,0,0,3.4-1.92l21.48-36V96.65a4,4,0,0,0,4,4H94.38a4,4,0,0,0,4-4V6.23a4,4,0,0,0-4-4H76.85A4,4,0,0,0,73.45,4.2Z"/></g></g></svg>